<?xml version="1.0" standalone="no"?><!-- Generator: Gravit.io --><svg xmlns="http://www.w3.org/2000/svg" xmlns:xlink="http://www.w3.org/1999/xlink" style="isolation:isolate" viewBox="0 0 142 78" width="142" height="78"><defs><clipPath id="_clipPath_QSLQSnp8vBg6Y5DXy0ghsLkdNuePzMgL"><rect width="142" height="78"/></clipPath></defs><g clip-path="url(#_clipPath_QSLQSnp8vBg6Y5DXy0ghsLkdNuePzMgL)"><path d="M 3.533 1 L 138.467 1 C 139.865 1 141 2.135 141 3.533 L 141 74.467 C 141 75.865 139.865 77 138.467 77 L 3.533 77 C 2.135 77 1 75.865 1 74.467 L 1 3.533 C 1 2.135 2.135 1 3.533 1 Z" style="stroke:none;fill:#000000;stroke-miterlimit:10;"/><path d="M 3.533 1 L 138.467 1 C 139.865 1 141 2.135 141 3.533 L 141 74.467 C 141 75.865 139.865 77 138.467 77 L 3.533 77 C 2.135 77 1 75.865 1 74.467 L 1 3.533 C 1 2.135 2.135 1 3.533 1 Z" style="fill:none;stroke:#000000;stroke-width:2;stroke-linecap:square;stroke-miterlimit:2;"/><g><path d=" M 12.259 69.486 L 12.259 7.638 L 29.323 7.638 L 29.323 7.638 Q 35.947 7.638 39.259 11.31 L 39.259 11.31 L 39.259 11.31 Q 42.571 14.982 42.643 22.182 L 42.643 22.182 L 42.787 51.126 L 42.787 51.126 Q 42.859 60.27 39.619 64.878 L 39.619 64.878 L 39.619 64.878 Q 36.379 69.486 28.891 69.486 L 28.891 69.486 L 12.259 69.486 Z  M 24.715 58.542 L 26.875 58.542 L 26.875 58.542 Q 30.259 58.542 30.259 55.23 L 30.259 55.23 L 30.259 23.334 L 30.259 23.334 Q 30.259 21.246 29.935 20.202 L 29.935 20.202 L 29.935 20.202 Q 29.611 19.158 28.747 18.798 L 28.747 18.798 L 28.747 18.798 Q 27.883 18.438 26.083 18.438 L 26.083 18.438 L 24.715 18.438 L 24.715 58.542 Z  M 62.515 70.062 L 62.515 70.062 Q 55.027 70.062 51.139 65.49 L 51.139 65.49 L 51.139 65.49 Q 47.251 60.918 47.251 52.638 L 47.251 52.638 L 47.251 23.19 L 47.251 23.19 Q 47.251 15.198 51.139 11.13 L 51.139 11.13 L 51.139 11.13 Q 55.027 7.062 62.515 7.062 L 62.515 7.062 L 62.515 7.062 Q 70.003 7.062 73.891 11.13 L 73.891 11.13 L 73.891 11.13 Q 77.779 15.198 77.779 23.19 L 77.779 23.19 L 77.779 52.638 L 77.779 52.638 Q 77.779 60.99 73.891 65.526 L 73.891 65.526 L 73.891 65.526 Q 70.003 70.062 62.515 70.062 L 62.515 70.062 Z  M 62.515 58.686 L 62.515 58.686 Q 64.171 58.686 64.747 57.246 L 64.747 57.246 L 64.747 57.246 Q 65.323 55.806 65.323 53.214 L 65.323 53.214 L 65.323 22.974 L 65.323 22.974 Q 65.323 20.958 64.783 19.698 L 64.783 19.698 L 64.783 19.698 Q 64.243 18.438 62.587 18.438 L 62.587 18.438 L 62.587 18.438 Q 59.491 18.438 59.491 23.118 L 59.491 23.118 L 59.491 53.286 L 59.491 53.286 Q 59.491 55.95 60.139 57.318 L 60.139 57.318 L 60.139 57.318 Q 60.787 58.686 62.515 58.686 L 62.515 58.686 Z " fill="rgb(255,255,255)"/><path d=" M 101.804 69.486 L 90.683 69.486 L 90.683 11.938 L 101.804 11.938 L 101.804 69.486 Z  M 122.907 69.486 L 111.384 69.486 L 111.384 22.992 L 104.551 22.992 L 104.551 11.938 L 129.741 11.938 L 129.741 22.992 L 122.907 22.992 L 122.907 69.486 Z " fill="rgb(0,255,132)"/><circle vector-effect="non-scaling-stroke" cx="83.52320504250187" cy="62.938003295898426" r="8" fill="rgb(0,255,132)"/></g></g></svg>