<?xml version="1.0" standalone="no"?>
<!DOCTYPE svg PUBLIC "-//W3C//DTD SVG 20010904//EN"
 "http://www.w3.org/TR/2001/REC-SVG-20010904/DTD/svg10.dtd">
<svg version="1.0" xmlns="http://www.w3.org/2000/svg"
 width="1136.000000pt" height="1136.000000pt" viewBox="0 0 1136.000000 1136.000000"
 preserveAspectRatio="xMidYMid meet">
<metadata>
Created by potrace 1.11, written by Peter Selinger 2001-2013
</metadata>
<g transform="translate(0.000000,1136.000000) scale(0.100000,-0.100000)"
fill="#000000" stroke="none">
<path d="M217 8789 c-80 -19 -154 -81 -191 -159 l-21 -45 0 -2905 0 -2905 21
-45 c27 -57 87 -117 144 -144 l45 -21 5465 0 5465 0 45 21 c57 27 117 87 144
144 l21 45 0 2905 0 2905 -21 45 c-27 57 -87 117 -144 144 l-45 21 -5445 2
c-3166 0 -5461 -3 -5483 -8z m4927 -559 c331 -27 559 -118 741 -295 159 -155
245 -325 307 -605 l23 -105 3 -1395 c3 -1326 0 -1535 -25 -1630 -5 -20 6 -14
60 37 73 68 192 132 286 153 77 18 224 16 300 -5 145 -38 278 -129 361 -247
l50 -71 2 1889 3 1889 445 0 445 0 0 -2300 0 -2300 -447 -3 -448 -2 0 111 0
112 -50 -71 c-117 -166 -307 -263 -516 -264 -115 -1 -177 13 -284 64 -173 82
-309 261 -347 455 l-16 82 -53 -77 c-166 -242 -394 -382 -714 -438 -128 -22
-411 -23 -536 -1 -514 91 -814 412 -926 992 -21 108 -22 129 -25 1495 -4 1512
-4 1518 53 1731 130 485 467 754 999 798 146 12 169 12 309 1z m-2473 -72
c438 -108 662 -388 730 -913 13 -107 29 -2449 17 -2725 -18 -458 -123 -785
-316 -991 -150 -160 -334 -246 -592 -278 -52 -7 -362 -11 -807 -11 l-723 0 0
2475 0 2476 793 -4 792 -3 106 -26z m7709 -753 l0 -445 -275 0 -275 0 0 -1860
0 -1860 -460 0 -460 0 0 1860 0 1860 -275 0 -275 0 0 438 c0 241 3 442 7 445
3 4 458 7 1010 7 l1003 0 0 -445z"/>
<path d="M4902 7299 c-54 -27 -88 -71 -115 -151 l-22 -63 -3 -1295 c-2 -853 0
-1326 7 -1386 12 -104 42 -198 74 -232 33 -37 95 -62 155 -62 102 0 155 43
194 158 l23 67 3 1360 c2 965 0 1377 -8 1420 -18 97 -53 160 -104 184 -58 28
-146 28 -204 0z"/>
<path d="M1980 5720 l0 -1602 138 4 c152 5 195 18 245 77 54 65 52 -3 52 1506
0 1308 -1 1404 -18 1457 -37 121 -89 149 -284 156 l-133 4 0 -1602z"/>
</g>
</svg>
